<svg width="72" height="119" viewBox="0 0 72 119" fill="none" xmlns="http://www.w3.org/2000/svg">
<path fill-rule="evenodd" clip-rule="evenodd" d="M47.9999 37.1081C47.9999 39.381 46.5216 41.2879 44.5 41.9304V43.9999C47.6452 43.3079 49.9999 40.4852 49.9999 37.1081C49.9999 33.2122 46.8659 30.054 42.9999 30.054C42.8016 30.054 42.6052 30.0623 42.4111 30.0786C40.9765 25.9561 37.0808 23 32.5 23C26.701 23 22 27.7374 22 33.5812C22 37.9978 24.6851 41.7823 28.5 43.3676V41.1542C25.8261 39.712 24 36.868 24 33.5812C24 28.8274 27.8201 25 32.5 25C36.1234 25 39.2314 27.2944 40.45 30.5367L40.4583 30.5334C40.6894 31.1592 40.8514 31.8194 40.9349 32.5044C41.5654 32.2149 42.265 32.054 42.9999 32.054C45.7469 32.054 47.9999 34.3023 47.9999 37.1081ZM43 38H33V40H43V38ZM41 42H31V44H41V42ZM33 46H43V48H33V46Z" fill="white"/>
<path fill-rule="evenodd" clip-rule="evenodd" d="M47.9999 84.1081C47.9999 86.381 46.5216 88.2879 44.5 88.9304V90.9999C47.6452 90.3079 49.9999 87.4852 49.9999 84.1081C49.9999 80.2122 46.8659 77.054 42.9999 77.054C42.8016 77.054 42.6052 77.0623 42.4111 77.0786C40.9765 72.9561 37.0808 70 32.5 70C26.701 70 22 74.7374 22 80.5812C22 84.9978 24.6851 88.7823 28.5 90.3676V88.1542C25.8261 86.712 24 83.868 24 80.5812C24 75.8274 27.8201 72 32.5 72C36.1234 72 39.2314 74.2944 40.45 77.5367L40.4583 77.5334C40.6894 78.1592 40.8514 78.8194 40.9349 79.5044C41.5654 79.2149 42.265 79.054 42.9999 79.054C45.7469 79.054 47.9999 81.3023 47.9999 84.1081ZM43 85H33V87H43V85ZM41 89H31V91H41V89ZM33 93H43V95H33V93Z" fill="#6165F8"/>
<rect x="0.5" y="0.5" width="71" height="118" rx="4.5" stroke="#7B61FF" stroke-dasharray="10 5"/>
</svg>
