<svg width="32" height="32" viewBox="0 0 32 32" fill="none" xmlns="http://www.w3.org/2000/svg">
<path fill-rule="evenodd" clip-rule="evenodd" d="M24.1092 13.312C25.6079 13.2633 27.0311 12.6543 28.0937 11.6095C28.6414 11.0636 29.0812 10.4121 29.3788 9.68862C29.7814 10.8494 29.9999 12.095 29.9999 13.3911C29.9999 18.4915 26.6158 22.809 21.9502 24.2606C21.9865 24.5035 22.0053 24.7522 22.0053 25.0053C22.0053 27.7681 19.7655 30.0079 17.0027 30.0079C16.9092 30.0079 16.8164 30.0053 16.7242 30.0002H9.50497V29.9988L9.49868 29.9988C5.35437 29.9988 1.99475 26.671 1.99475 22.5659C1.99475 19.257 4.1776 16.4531 7.19475 15.49C7.06683 14.8097 6.99994 14.1081 6.99994 13.3911C6.99994 7.09996 12.1487 2 18.4999 2C19.3972 2 20.2704 2.10178 21.1086 2.29432C20.4071 2.65945 19.7886 3.15913 19.2884 3.75857C18.3467 4.92001 17.8848 6.39337 17.9982 7.88067C18.1134 9.39175 18.8134 10.8004 19.9521 11.8124C21.0908 12.8245 22.5802 13.3618 24.1092 13.312ZM9.16473 15.1403C9.27544 15.1355 9.38677 15.1331 9.49868 15.1331C12.7411 15.1331 15.5033 17.1701 16.5519 20.0227C16.7004 20.0094 16.8507 20.0026 17.0027 20.0026C18.8026 20.0026 20.3804 20.9532 21.2617 22.3797C24.9139 21.2852 27.624 18.0768 27.9639 14.2139C26.8234 14.8826 25.5222 15.2641 24.1756 15.3079C22.1269 15.3745 20.1315 14.6547 18.6058 13.2987C17.0801 11.9427 16.1422 10.0554 15.9879 8.03086C15.8861 6.69604 16.1302 5.3696 16.6817 4.17153C12.2933 5.0113 8.99994 8.8333 8.99994 13.3911C8.99994 13.9885 9.05652 14.5732 9.16473 15.1403ZM9.5249 27.9987L9.49868 27.9988C6.44095 27.9988 3.99475 25.5485 3.99475 22.5659C3.99475 19.5833 6.44095 17.1331 9.49868 17.1331C11.8725 17.1331 13.8777 18.6098 14.656 20.6659L14.6611 20.6632C14.884 21.2556 15.0058 21.8968 15.0058 22.5661C15.0058 22.6331 15.0046 22.6998 15.0022 22.7661C15.5332 22.2913 16.2342 22.0026 17.0027 22.0026C18.661 22.0026 20.0053 23.347 20.0053 25.0053C20.0053 26.6636 18.661 28.0079 17.0027 28.0079H16.9999V28.0002H16.7871L16.7663 27.9987H12.9941L12.9953 28.0002H12.988L12.9868 27.9987H9.5249Z" fill="white"/>
</svg>
