<svg width="16" height="16" viewBox="0 0 16 16" fill="none" xmlns="http://www.w3.org/2000/svg">
<path fill-rule="evenodd" clip-rule="evenodd" d="M11.5 10.1819C11.5 11.5905 10.0934 13 8 13C5.90664 13 4.5 11.5905 4.5 10.1819C4.5 8.72079 5.4503 6.9012 6.56726 5.31715C7.0721 4.60119 7.57877 3.97755 7.97499 3.51684C8.37874 4.01355 8.90264 4.68969 9.42464 5.45276C9.96891 6.24837 10.4983 7.11991 10.8883 7.96813C11.2855 8.83189 11.5 9.5903 11.5 10.1819ZM3.5 10.1819C3.5 7.46349 6.06561 4.18548 7.32239 2.74282C7.73005 2.27485 8 2 8 2C8 2 8.25862 2.28588 8.65186 2.76477C9.89896 4.2835 12.5 7.74336 12.5 10.1819C12.5 12.2906 10.4853 14 8 14C5.51472 14 3.5 12.2906 3.5 10.1819ZM5.74917 8.5H6.82496C6.62254 8.96197 6.5 9.40007 6.5 9.77277C6.5 10.3451 7.05982 11 8 11V12C6.61929 12 5.5 11.0028 5.5 9.77277C5.5 9.36231 5.5955 8.92998 5.74917 8.5Z" fill="#6165F8"/>
</svg>
