<svg width="24" height="24" viewBox="0 0 24 24" fill="none" xmlns="http://www.w3.org/2000/svg">
<path fill-rule="evenodd" clip-rule="evenodd" d="M11.25 3.75V1.5H12.75V3.75H11.25ZM15.4755 4.48036L16.6005 2.5318L17.8996 3.2818L16.7746 5.23036L15.4755 4.48036ZM12 17.25C14.8995 17.25 17.25 14.8995 17.25 12C17.25 9.1005 14.8995 6.75 12 6.75C9.1005 6.75 6.75 9.1005 6.75 12C6.75 14.8995 9.1005 17.25 12 17.25ZM12 18.75C15.7279 18.75 18.75 15.7279 18.75 12C18.75 8.27208 15.7279 5.25 12 5.25C8.27208 5.25 5.25 8.27208 5.25 12C5.25 15.7279 8.27208 18.75 12 18.75ZM20.25 11.25H22.5V12.75H20.25V11.25ZM20.7182 6.10048L18.7697 7.22548L19.5197 8.52452L21.4682 7.39952L20.7182 6.10048ZM6.10048 3.2818L7.22548 5.23036L8.52452 4.48036L7.39952 2.5318L6.10048 3.2818ZM4.48031 8.52452L2.53175 7.39952L3.28175 6.10048L5.23031 7.22548L4.48031 8.52452ZM11.25 20.25V22.5H12.75V20.25H11.25ZM3.75 11.25H1.5V12.75H3.75V11.25ZM2.53171 16.6005L4.48027 15.4755L5.23027 16.7745L3.28171 17.8995L2.53171 16.6005ZM7.22553 18.7698L6.10053 20.7183L7.39956 21.4683L8.52456 19.5198L7.22553 18.7698ZM16.6005 21.4683L15.4755 19.5198L16.7745 18.7698L17.8995 20.7183L16.6005 21.4683ZM18.7697 16.7745L20.7183 17.8995L21.4683 16.6005L19.5197 15.4755L18.7697 16.7745Z" fill="#F5BA25"/>
</svg>
